<svg width="25" height="25" viewBox="0 0 25 25" fill="none" xmlns="http://www.w3.org/2000/svg">
<mask id="path-1-outside-1_2_532" maskUnits="userSpaceOnUse" x="4.79218" y="4.20819" width="16" height="16" fill="black">
<rect fill="white" x="4.79218" y="4.20819" width="16" height="16"/>
<path d="M18.7023 16.2397C19.3508 15.2064 19.7173 14.0124 19.7824 12.7988C19.8482 11.5679 19.5811 10.3339 19.0352 9.22885C18.5083 8.16188 17.703 7.24957 16.7356 6.55402C15.7452 5.84164 14.5807 5.41614 13.3713 5.26268C13.0832 5.22622 12.7927 5.20859 12.5022 5.20819C10.7804 5.2118 9.12046 5.82241 7.80075 6.91462C6.54166 7.95674 5.65149 9.45242 5.34762 11.0511C5.19044 11.8796 5.21225 12.7094 5.21225 13.5468V16.8695C5.21225 17.6236 5.20458 18.378 5.21225 19.1317C5.21225 19.1437 5.21225 19.1557 5.21225 19.1677C5.21225 19.4362 5.44177 19.6641 5.71291 19.6641H11.4992C11.8823 19.6641 12.2658 19.6705 12.6488 19.6625C13.8788 19.6365 15.0975 19.3019 16.1614 18.6885C17.193 18.0939 18.0715 17.2433 18.7019 16.2393L18.7023 16.2397ZM15.4527 17.9445C15.3311 18.009 15.2078 18.0699 15.0826 18.1272C15.049 18.1424 15.0155 18.1576 14.9815 18.1721C14.9767 18.1741 14.9666 18.1785 14.9553 18.1833C14.9371 18.1905 14.9072 18.2029 14.8967 18.2073C14.8579 18.2225 14.8191 18.2378 14.7803 18.2522C14.5189 18.3508 14.251 18.4333 13.979 18.4986C13.8368 18.5331 13.6934 18.5627 13.5495 18.5876C13.4841 18.5988 13.4182 18.6088 13.3523 18.6188C13.3115 18.624 13.2703 18.6288 13.2295 18.6328C12.7616 18.6821 12.2904 18.6709 11.8209 18.6709H6.21476V13.9647C6.21476 13.2848 6.18244 12.5936 6.23456 11.9149C6.24184 11.8199 6.25113 11.725 6.26244 11.6304C6.26406 11.6184 6.26528 11.606 6.26689 11.594C6.26689 11.594 6.26689 11.594 6.26689 11.5936C6.27538 11.5375 6.28386 11.4818 6.29356 11.4257C6.32709 11.2322 6.36872 11.0399 6.41923 10.8499C6.46893 10.662 6.52711 10.4765 6.59338 10.2938C6.62449 10.2073 6.65763 10.1215 6.69279 10.0366C6.69036 10.0422 6.68793 10.0474 6.6847 10.0538C6.69237 10.0374 6.69924 10.0202 6.70652 10.0033C6.72874 9.95285 6.75138 9.90317 6.77441 9.85349C6.93644 9.50731 7.12838 9.17516 7.34738 8.86144C7.3987 8.78772 7.45163 8.7148 7.50618 8.64348C7.50254 8.64789 7.50012 8.65069 7.49568 8.6559C7.51022 8.63867 7.52396 8.62024 7.53811 8.60261C7.56922 8.56375 7.60074 8.52529 7.63266 8.48682C7.75752 8.33777 7.88925 8.19394 8.02663 8.05571C8.16079 7.92108 8.301 7.79167 8.44606 7.66867C8.51273 7.61217 8.58062 7.55768 8.64931 7.50359C8.64325 7.5076 8.6388 7.51121 8.63153 7.51641C8.64163 7.5092 8.65133 7.50159 8.66103 7.49438C8.66345 7.49237 8.66547 7.49077 8.66789 7.48877C8.67436 7.48356 8.68244 7.47795 8.68891 7.47354C8.69174 7.47154 8.69416 7.46954 8.69699 7.46753C8.74063 7.43508 8.78508 7.40303 8.82952 7.37177C9.14308 7.15101 9.47564 6.95669 9.82234 6.79201C9.90194 6.75395 9.98275 6.71829 10.064 6.68303C10.0785 6.67702 10.0935 6.67101 10.108 6.6654C10.1597 6.64497 10.2115 6.62494 10.2636 6.60571C10.447 6.53799 10.6329 6.47829 10.8216 6.42661C11.0123 6.37452 11.2051 6.33045 11.3994 6.29479C11.4928 6.27756 11.5877 6.26755 11.6811 6.24952C11.5138 6.28157 11.6754 6.25072 11.7187 6.24551C11.776 6.2391 11.8334 6.23309 11.8908 6.22828C12.094 6.21025 12.2981 6.20184 12.5022 6.20144C12.7911 6.20224 13.0788 6.22147 13.3657 6.25593C13.3705 6.25673 13.3754 6.25713 13.3802 6.25793C13.4133 6.26274 13.4461 6.26795 13.4788 6.27315C13.5536 6.28517 13.6283 6.2988 13.7027 6.31362C13.8413 6.34087 13.9786 6.37252 14.1152 6.40858C14.3896 6.4807 14.6591 6.57005 14.9221 6.67622C14.9286 6.67903 14.9355 6.68143 14.9424 6.68424C14.9638 6.69345 14.9852 6.70267 15.0066 6.71188C15.0741 6.74153 15.1408 6.77238 15.207 6.80403C15.3311 6.86373 15.4531 6.92704 15.5731 6.99395C15.816 7.12937 16.0503 7.27962 16.2746 7.44389C16.2984 7.46152 16.3223 7.47915 16.3457 7.49678C16.3497 7.49999 16.3538 7.50319 16.3578 7.506C16.4116 7.54807 16.4641 7.59094 16.5166 7.63461C16.6245 7.72476 16.7296 7.81811 16.8318 7.91467C17.0294 8.10138 17.2157 8.29971 17.3894 8.50886C17.4125 8.5369 17.4355 8.56495 17.4581 8.593C17.4622 8.59821 17.4731 8.61183 17.4832 8.62465C17.4945 8.63907 17.5078 8.6567 17.5135 8.66392C17.5353 8.69276 17.5567 8.72201 17.5781 8.75126C17.661 8.86505 17.7402 8.98124 17.8157 9.09984C17.9624 9.33062 18.0953 9.57022 18.2125 9.81662C18.242 9.87873 18.2707 9.94083 18.2982 10.0037C18.299 10.0053 18.2998 10.0069 18.3002 10.0089C18.3144 10.0442 18.3289 10.0787 18.343 10.1139C18.3939 10.2425 18.4408 10.3727 18.4832 10.5042C18.5697 10.7698 18.6388 11.0411 18.6909 11.3155C18.7043 11.3848 18.716 11.4545 18.7273 11.5243C18.7326 11.5571 18.7366 11.59 18.7419 11.6224C18.7144 11.4561 18.7398 11.6084 18.7443 11.6457C18.7613 11.7879 18.7734 11.9309 18.7811 12.074C18.7968 12.3681 18.7936 12.6633 18.771 12.957C18.7657 13.0235 18.7596 13.09 18.7524 13.1566C18.7487 13.1898 18.7451 13.2227 18.7411 13.2559C18.7402 13.2635 18.739 13.2711 18.7382 13.2792C18.7164 13.4186 18.693 13.5576 18.6639 13.6958C18.6053 13.9731 18.5285 14.2464 18.4352 14.5136C18.4137 14.5745 18.3915 14.635 18.3685 14.6951C18.3568 14.7252 18.3451 14.7552 18.3333 14.7849C18.3273 14.7997 18.2978 14.8702 18.2945 14.8786C18.2917 14.8854 18.2889 14.8914 18.2877 14.8942C18.2727 14.9279 18.2578 14.9611 18.2424 14.9944C18.2137 15.0565 18.1838 15.1182 18.1531 15.1795C18.0287 15.4275 17.8889 15.6679 17.7345 15.8987C17.6589 16.0117 17.5797 16.1227 17.4977 16.2308C17.4949 16.2349 17.4917 16.2389 17.4884 16.2429C17.4698 16.2661 17.4516 16.2889 17.4331 16.3122C17.3902 16.3647 17.3466 16.4168 17.3021 16.4684C17.1215 16.6772 16.9276 16.8751 16.7227 17.0602C16.6217 17.1516 16.5182 17.2397 16.412 17.3247C16.3901 17.3423 16.3679 17.3595 16.3457 17.3771C16.3404 17.3812 16.3352 17.3852 16.3304 17.3888C16.2722 17.4324 16.2132 17.4749 16.1534 17.5166C15.9291 17.6732 15.6951 17.8163 15.4531 17.9449L15.4527 17.9445Z"/>
</mask>
<path d="M18.7023 16.2397C19.3508 15.2064 19.7173 14.0124 19.7824 12.7988C19.8482 11.5679 19.5811 10.3339 19.0352 9.22885C18.5083 8.16188 17.703 7.24957 16.7356 6.55402C15.7452 5.84164 14.5807 5.41614 13.3713 5.26268C13.0832 5.22622 12.7927 5.20859 12.5022 5.20819C10.7804 5.2118 9.12046 5.82241 7.80075 6.91462C6.54166 7.95674 5.65149 9.45242 5.34762 11.0511C5.19044 11.8796 5.21225 12.7094 5.21225 13.5468V16.8695C5.21225 17.6236 5.20458 18.378 5.21225 19.1317C5.21225 19.1437 5.21225 19.1557 5.21225 19.1677C5.21225 19.4362 5.44177 19.6641 5.71291 19.6641H11.4992C11.8823 19.6641 12.2658 19.6705 12.6488 19.6625C13.8788 19.6365 15.0975 19.3019 16.1614 18.6885C17.193 18.0939 18.0715 17.2433 18.7019 16.2393L18.7023 16.2397ZM15.4527 17.9445C15.3311 18.009 15.2078 18.0699 15.0826 18.1272C15.049 18.1424 15.0155 18.1576 14.9815 18.1721C14.9767 18.1741 14.9666 18.1785 14.9553 18.1833C14.9371 18.1905 14.9072 18.2029 14.8967 18.2073C14.8579 18.2225 14.8191 18.2378 14.7803 18.2522C14.5189 18.3508 14.251 18.4333 13.979 18.4986C13.8368 18.5331 13.6934 18.5627 13.5495 18.5876C13.4841 18.5988 13.4182 18.6088 13.3523 18.6188C13.3115 18.624 13.2703 18.6288 13.2295 18.6328C12.7616 18.6821 12.2904 18.6709 11.8209 18.6709H6.21476V13.9647C6.21476 13.2848 6.18244 12.5936 6.23456 11.9149C6.24184 11.8199 6.25113 11.725 6.26244 11.6304C6.26406 11.6184 6.26528 11.606 6.26689 11.594C6.26689 11.594 6.26689 11.594 6.26689 11.5936C6.27538 11.5375 6.28386 11.4818 6.29356 11.4257C6.32709 11.2322 6.36872 11.0399 6.41923 10.8499C6.46893 10.662 6.52711 10.4765 6.59338 10.2938C6.62449 10.2073 6.65763 10.1215 6.69279 10.0366C6.69036 10.0422 6.68793 10.0474 6.6847 10.0538C6.69237 10.0374 6.69924 10.0202 6.70652 10.0033C6.72874 9.95285 6.75138 9.90317 6.77441 9.85349C6.93644 9.50731 7.12838 9.17516 7.34738 8.86144C7.3987 8.78772 7.45163 8.7148 7.50618 8.64348C7.50254 8.64789 7.50012 8.65069 7.49568 8.6559C7.51022 8.63867 7.52396 8.62024 7.53811 8.60261C7.56922 8.56375 7.60074 8.52529 7.63266 8.48682C7.75752 8.33777 7.88925 8.19394 8.02663 8.05571C8.16079 7.92108 8.301 7.79167 8.44606 7.66867C8.51273 7.61217 8.58062 7.55768 8.64931 7.50359C8.64325 7.5076 8.6388 7.51121 8.63153 7.51641C8.64163 7.5092 8.65133 7.50159 8.66103 7.49438C8.66345 7.49237 8.66547 7.49077 8.66789 7.48877C8.67436 7.48356 8.68244 7.47795 8.68891 7.47354C8.69174 7.47154 8.69416 7.46954 8.69699 7.46753C8.74063 7.43508 8.78508 7.40303 8.82952 7.37177C9.14308 7.15101 9.47564 6.95669 9.82234 6.79201C9.90194 6.75395 9.98275 6.71829 10.064 6.68303C10.0785 6.67702 10.0935 6.67101 10.108 6.6654C10.1597 6.64497 10.2115 6.62494 10.2636 6.60571C10.447 6.53799 10.6329 6.47829 10.8216 6.42661C11.0123 6.37452 11.2051 6.33045 11.3994 6.29479C11.4928 6.27756 11.5877 6.26755 11.6811 6.24952C11.5138 6.28157 11.6754 6.25072 11.7187 6.24551C11.776 6.2391 11.8334 6.23309 11.8908 6.22828C12.094 6.21025 12.2981 6.20184 12.5022 6.20144C12.7911 6.20224 13.0788 6.22147 13.3657 6.25593C13.3705 6.25673 13.3754 6.25713 13.3802 6.25793C13.4133 6.26274 13.4461 6.26795 13.4788 6.27315C13.5536 6.28517 13.6283 6.2988 13.7027 6.31362C13.8413 6.34087 13.9786 6.37252 14.1152 6.40858C14.3896 6.4807 14.6591 6.57005 14.9221 6.67622C14.9286 6.67903 14.9355 6.68143 14.9424 6.68424C14.9638 6.69345 14.9852 6.70267 15.0066 6.71188C15.0741 6.74153 15.1408 6.77238 15.207 6.80403C15.3311 6.86373 15.4531 6.92704 15.5731 6.99395C15.816 7.12937 16.0503 7.27962 16.2746 7.44389C16.2984 7.46152 16.3223 7.47915 16.3457 7.49678C16.3497 7.49999 16.3538 7.50319 16.3578 7.506C16.4116 7.54807 16.4641 7.59094 16.5166 7.63461C16.6245 7.72476 16.7296 7.81811 16.8318 7.91467C17.0294 8.10138 17.2157 8.29971 17.3894 8.50886C17.4125 8.5369 17.4355 8.56495 17.4581 8.593C17.4622 8.59821 17.4731 8.61183 17.4832 8.62465C17.4945 8.63907 17.5078 8.6567 17.5135 8.66392C17.5353 8.69276 17.5567 8.72201 17.5781 8.75126C17.661 8.86505 17.7402 8.98124 17.8157 9.09984C17.9624 9.33062 18.0953 9.57022 18.2125 9.81662C18.242 9.87873 18.2707 9.94083 18.2982 10.0037C18.299 10.0053 18.2998 10.0069 18.3002 10.0089C18.3144 10.0442 18.3289 10.0787 18.343 10.1139C18.3939 10.2425 18.4408 10.3727 18.4832 10.5042C18.5697 10.7698 18.6388 11.0411 18.6909 11.3155C18.7043 11.3848 18.716 11.4545 18.7273 11.5243C18.7326 11.5571 18.7366 11.59 18.7419 11.6224C18.7144 11.4561 18.7398 11.6084 18.7443 11.6457C18.7613 11.7879 18.7734 11.9309 18.7811 12.074C18.7968 12.3681 18.7936 12.6633 18.771 12.957C18.7657 13.0235 18.7596 13.09 18.7524 13.1566C18.7487 13.1898 18.7451 13.2227 18.7411 13.2559C18.7402 13.2635 18.739 13.2711 18.7382 13.2792C18.7164 13.4186 18.693 13.5576 18.6639 13.6958C18.6053 13.9731 18.5285 14.2464 18.4352 14.5136C18.4137 14.5745 18.3915 14.635 18.3685 14.6951C18.3568 14.7252 18.3451 14.7552 18.3333 14.7849C18.3273 14.7997 18.2978 14.8702 18.2945 14.8786C18.2917 14.8854 18.2889 14.8914 18.2877 14.8942C18.2727 14.9279 18.2578 14.9611 18.2424 14.9944C18.2137 15.0565 18.1838 15.1182 18.1531 15.1795C18.0287 15.4275 17.8889 15.6679 17.7345 15.8987C17.6589 16.0117 17.5797 16.1227 17.4977 16.2308C17.4949 16.2349 17.4917 16.2389 17.4884 16.2429C17.4698 16.2661 17.4516 16.2889 17.4331 16.3122C17.3902 16.3647 17.3466 16.4168 17.3021 16.4684C17.1215 16.6772 16.9276 16.8751 16.7227 17.0602C16.6217 17.1516 16.5182 17.2397 16.412 17.3247C16.3901 17.3423 16.3679 17.3595 16.3457 17.3771C16.3404 17.3812 16.3352 17.3852 16.3304 17.3888C16.2722 17.4324 16.2132 17.4749 16.1534 17.5166C15.9291 17.6732 15.6951 17.8163 15.4531 17.9449L15.4527 17.9445Z" fill="#AFB9CA"/>
<path d="M18.7023 16.2397C19.3508 15.2064 19.7173 14.0124 19.7824 12.7988C19.8482 11.5679 19.5811 10.3339 19.0352 9.22885C18.5083 8.16188 17.703 7.24957 16.7356 6.55402C15.7452 5.84164 14.5807 5.41614 13.3713 5.26268C13.0832 5.22622 12.7927 5.20859 12.5022 5.20819C10.7804 5.2118 9.12046 5.82241 7.80075 6.91462C6.54166 7.95674 5.65149 9.45242 5.34762 11.0511C5.19044 11.8796 5.21225 12.7094 5.21225 13.5468V16.8695C5.21225 17.6236 5.20458 18.378 5.21225 19.1317C5.21225 19.1437 5.21225 19.1557 5.21225 19.1677C5.21225 19.4362 5.44177 19.6641 5.71291 19.6641H11.4992C11.8823 19.6641 12.2658 19.6705 12.6488 19.6625C13.8788 19.6365 15.0975 19.3019 16.1614 18.6885C17.193 18.0939 18.0715 17.2433 18.7019 16.2393L18.7023 16.2397ZM15.4527 17.9445C15.3311 18.009 15.2078 18.0699 15.0826 18.1272C15.049 18.1424 15.0155 18.1576 14.9815 18.1721C14.9767 18.1741 14.9666 18.1785 14.9553 18.1833C14.9371 18.1905 14.9072 18.2029 14.8967 18.2073C14.8579 18.2225 14.8191 18.2378 14.7803 18.2522C14.5189 18.3508 14.251 18.4333 13.979 18.4986C13.8368 18.5331 13.6934 18.5627 13.5495 18.5876C13.4841 18.5988 13.4182 18.6088 13.3523 18.6188C13.3115 18.624 13.2703 18.6288 13.2295 18.6328C12.7616 18.6821 12.2904 18.6709 11.8209 18.6709H6.21476V13.9647C6.21476 13.2848 6.18244 12.5936 6.23456 11.9149C6.24184 11.8199 6.25113 11.725 6.26244 11.6304C6.26406 11.6184 6.26528 11.606 6.26689 11.594C6.26689 11.594 6.26689 11.594 6.26689 11.5936C6.27538 11.5375 6.28386 11.4818 6.29356 11.4257C6.32709 11.2322 6.36872 11.0399 6.41923 10.8499C6.46893 10.662 6.52711 10.4765 6.59338 10.2938C6.62449 10.2073 6.65763 10.1215 6.69279 10.0366C6.69036 10.0422 6.68793 10.0474 6.6847 10.0538C6.69237 10.0374 6.69924 10.0202 6.70652 10.0033C6.72874 9.95285 6.75138 9.90317 6.77441 9.85349C6.93644 9.50731 7.12838 9.17516 7.34738 8.86144C7.3987 8.78772 7.45163 8.7148 7.50618 8.64348C7.50254 8.64789 7.50012 8.65069 7.49568 8.6559C7.51022 8.63867 7.52396 8.62024 7.53811 8.60261C7.56922 8.56375 7.60074 8.52529 7.63266 8.48682C7.75752 8.33777 7.88925 8.19394 8.02663 8.05571C8.16079 7.92108 8.301 7.79167 8.44606 7.66867C8.51273 7.61217 8.58062 7.55768 8.64931 7.50359C8.64325 7.5076 8.6388 7.51121 8.63153 7.51641C8.64163 7.5092 8.65133 7.50159 8.66103 7.49438C8.66345 7.49237 8.66547 7.49077 8.66789 7.48877C8.67436 7.48356 8.68244 7.47795 8.68891 7.47354C8.69174 7.47154 8.69416 7.46954 8.69699 7.46753C8.74063 7.43508 8.78508 7.40303 8.82952 7.37177C9.14308 7.15101 9.47564 6.95669 9.82234 6.79201C9.90194 6.75395 9.98275 6.71829 10.064 6.68303C10.0785 6.67702 10.0935 6.67101 10.108 6.6654C10.1597 6.64497 10.2115 6.62494 10.2636 6.60571C10.447 6.53799 10.6329 6.47829 10.8216 6.42661C11.0123 6.37452 11.2051 6.33045 11.3994 6.29479C11.4928 6.27756 11.5877 6.26755 11.6811 6.24952C11.5138 6.28157 11.6754 6.25072 11.7187 6.24551C11.776 6.2391 11.8334 6.23309 11.8908 6.22828C12.094 6.21025 12.2981 6.20184 12.5022 6.20144C12.7911 6.20224 13.0788 6.22147 13.3657 6.25593C13.3705 6.25673 13.3754 6.25713 13.3802 6.25793C13.4133 6.26274 13.4461 6.26795 13.4788 6.27315C13.5536 6.28517 13.6283 6.2988 13.7027 6.31362C13.8413 6.34087 13.9786 6.37252 14.1152 6.40858C14.3896 6.4807 14.6591 6.57005 14.9221 6.67622C14.9286 6.67903 14.9355 6.68143 14.9424 6.68424C14.9638 6.69345 14.9852 6.70267 15.0066 6.71188C15.0741 6.74153 15.1408 6.77238 15.207 6.80403C15.3311 6.86373 15.4531 6.92704 15.5731 6.99395C15.816 7.12937 16.0503 7.27962 16.2746 7.44389C16.2984 7.46152 16.3223 7.47915 16.3457 7.49678C16.3497 7.49999 16.3538 7.50319 16.3578 7.506C16.4116 7.54807 16.4641 7.59094 16.5166 7.63461C16.6245 7.72476 16.7296 7.81811 16.8318 7.91467C17.0294 8.10138 17.2157 8.29971 17.3894 8.50886C17.4125 8.5369 17.4355 8.56495 17.4581 8.593C17.4622 8.59821 17.4731 8.61183 17.4832 8.62465C17.4945 8.63907 17.5078 8.6567 17.5135 8.66392C17.5353 8.69276 17.5567 8.72201 17.5781 8.75126C17.661 8.86505 17.7402 8.98124 17.8157 9.09984C17.9624 9.33062 18.0953 9.57022 18.2125 9.81662C18.242 9.87873 18.2707 9.94083 18.2982 10.0037C18.299 10.0053 18.2998 10.0069 18.3002 10.0089C18.3144 10.0442 18.3289 10.0787 18.343 10.1139C18.3939 10.2425 18.4408 10.3727 18.4832 10.5042C18.5697 10.7698 18.6388 11.0411 18.6909 11.3155C18.7043 11.3848 18.716 11.4545 18.7273 11.5243C18.7326 11.5571 18.7366 11.59 18.7419 11.6224C18.7144 11.4561 18.7398 11.6084 18.7443 11.6457C18.7613 11.7879 18.7734 11.9309 18.7811 12.074C18.7968 12.3681 18.7936 12.6633 18.771 12.957C18.7657 13.0235 18.7596 13.09 18.7524 13.1566C18.7487 13.1898 18.7451 13.2227 18.7411 13.2559C18.7402 13.2635 18.739 13.2711 18.7382 13.2792C18.7164 13.4186 18.693 13.5576 18.6639 13.6958C18.6053 13.9731 18.5285 14.2464 18.4352 14.5136C18.4137 14.5745 18.3915 14.635 18.3685 14.6951C18.3568 14.7252 18.3451 14.7552 18.3333 14.7849C18.3273 14.7997 18.2978 14.8702 18.2945 14.8786C18.2917 14.8854 18.2889 14.8914 18.2877 14.8942C18.2727 14.9279 18.2578 14.9611 18.2424 14.9944C18.2137 15.0565 18.1838 15.1182 18.1531 15.1795C18.0287 15.4275 17.8889 15.6679 17.7345 15.8987C17.6589 16.0117 17.5797 16.1227 17.4977 16.2308C17.4949 16.2349 17.4917 16.2389 17.4884 16.2429C17.4698 16.2661 17.4516 16.2889 17.4331 16.3122C17.3902 16.3647 17.3466 16.4168 17.3021 16.4684C17.1215 16.6772 16.9276 16.8751 16.7227 17.0602C16.6217 17.1516 16.5182 17.2397 16.412 17.3247C16.3901 17.3423 16.3679 17.3595 16.3457 17.3771C16.3404 17.3812 16.3352 17.3852 16.3304 17.3888C16.2722 17.4324 16.2132 17.4749 16.1534 17.5166C15.9291 17.6732 15.6951 17.8163 15.4531 17.9449L15.4527 17.9445Z" stroke="#AFB9CA" stroke-width="0.74701" stroke-linejoin="round" mask="url(#path-1-outside-1_2_532)"/>
<path d="M11.699 12.6235C11.5935 12.1805 11.8702 11.7367 12.317 11.6321C12.7638 11.5275 13.2114 11.8019 13.3169 12.2449C13.4223 12.6879 13.1456 13.1318 12.6989 13.2363C12.2521 13.3409 11.8044 13.0665 11.699 12.6235Z" fill="#AFB9CA"/>
<path d="M15.4227 13.1973C14.9986 13.0231 14.7972 12.541 14.9729 12.1205C15.1486 11.7 15.6348 11.5003 16.0589 11.6744C16.483 11.8486 16.6844 12.3307 16.5087 12.7513C16.333 13.1718 15.8468 13.3715 15.4227 13.1973Z" fill="#AFB9CA"/>
<path d="M9.25341 13.2603C8.79436 13.2603 8.42224 12.8913 8.42224 12.4361C8.42224 11.9809 8.79436 11.6119 9.25341 11.6119C9.71246 11.6119 10.0846 11.9809 10.0846 12.4361C10.0846 12.8913 9.71246 13.2603 9.25341 13.2603Z" fill="#AFB9CA"/>
</svg>
