<svg width="25" height="25" viewBox="0 0 25 25" fill="none" xmlns="http://www.w3.org/2000/svg">
	<path d="M12.5003 6.89943C13.3725 6.00071 14.5872 5.48583 15.8934 5.4857L12.5003 6.89943ZM12.5003 6.89943C11.6279 6.00037 10.4132 5.4857 9.10655 5.4857C6.54389 5.4857 4.44404 7.49875 4.44404 9.99213C4.44404 12.2444 5.82703 14.274 7.45221 15.8871C9.08348 17.5064 10.9986 18.7457 12.1463 19.4185C12.2557 19.4828 12.3782 19.5143 12.5 19.5143C12.6218 19.5143 12.7442 19.4828 12.8535 19.4186L12.5003 6.89943ZM17.5479 15.8873C15.9167 17.5065 14.0015 18.7458 12.8537 19.4185L17.5479 15.8873ZM17.5479 15.8873C19.173 14.2742 20.556 12.2445 20.556 9.99213M17.5479 15.8873L20.556 9.99213M20.556 9.99213C20.556 7.49919 18.4567 5.48597 15.894 5.4857L20.556 9.99213ZM17.086 14.4095L17.2665 14.5729L17.086 14.4095C15.9476 15.6672 14.3689 16.9239 12.5003 18.0562C10.6317 16.9239 9.05317 15.6672 7.91451 14.4095C6.50392 12.8515 5.81864 11.366 5.81864 9.99213C5.81864 8.2563 7.28544 6.82894 9.10655 6.82894C10.2657 6.82894 11.3139 7.39868 11.9161 8.34836L11.9161 8.34839C12.0428 8.54813 12.265 8.66633 12.5003 8.66633C12.7352 8.66633 12.9578 8.54839 13.0844 8.34833C13.6863 7.3987 14.7348 6.82894 15.894 6.82894C17.7151 6.82894 19.1819 8.2563 19.1819 9.99213C19.1819 11.366 18.4964 12.8514 17.086 14.4095Z" fill="#AFB9CA" stroke="#AFB9CA" stroke-width="0.486919" />
</svg>
