<svg width="24" height="24" viewBox="0 0 24 24" fill="none" xmlns="http://www.w3.org/2000/svg">
	<mask id="mask0_2_505" style="mask-type:alpha" maskUnits="userSpaceOnUse" x="0" y="0" width="24" height="24">
		<rect width="24" height="24" fill="#D9D9D9" />
	</mask>
	<g mask="url(#mask0_2_505)">
		<path d="M5.00165 21.9998C4.16831 21.9998 3.45998 21.7081 2.87665 21.1248C2.29331 20.5414 2.00165 19.8331 2.00165 18.9998V4.99976C2.00165 4.16642 2.29331 3.45809 2.87665 2.87476C3.45998 2.29142 4.16831 1.99976 5.00165 1.99976H19.0016C19.835 1.99976 20.5433 2.29142 21.1266 2.87476C21.71 3.45809 22.0016 4.16642 22.0016 4.99976V18.9998C22.0016 19.8331 21.71 20.5414 21.1266 21.1248C20.5433 21.7081 19.835 21.9998 19.0016 21.9998H5.00165ZM5.00165 19.9998H19.0016C19.285 19.9998 19.5223 19.9038 19.7136 19.7118C19.9056 19.5204 20.0016 19.2831 20.0016 18.9998V4.99976C20.0016 4.71642 19.9056 4.47876 19.7136 4.28676C19.5223 4.09542 19.285 3.99976 19.0016 3.99976H5.00165C4.71831 3.99976 4.48065 4.09542 4.28865 4.28676C4.09732 4.47876 4.00165 4.71642 4.00165 4.99976V18.9998C4.00165 19.2831 4.09732 19.5204 4.28865 19.7118C4.48065 19.9038 4.71831 19.9998 5.00165 19.9998ZM6.00165 17.9998L10.0016 13.9998L11.8016 15.7748L14.0016 12.9998L18.0016 17.9998H6.00165ZM8.00165 9.99976C7.45165 9.99976 6.98098 9.80376 6.58965 9.41176C6.19765 9.02042 6.00165 8.54976 6.00165 7.99976C6.00165 7.44976 6.19765 6.97909 6.58965 6.58776C6.98098 6.19576 7.45165 5.99976 8.00165 5.99976C8.55165 5.99976 9.02265 6.19576 9.41465 6.58776C9.80598 6.97909 10.0016 7.44976 10.0016 7.99976C10.0016 8.54976 9.80598 9.02042 9.41465 9.41176C9.02265 9.80376 8.55165 9.99976 8.00165 9.99976Z" fill="#919EB6" />
	</g>
</svg>
